<?xml version="1.0" encoding="UTF-8" standalone="no"?>
<svg xmlns="http://www.w3.org/2000/svg" viewBox="0 0 638.36 116.63"><defs><style>.cls-1{fill:#1d1d1b;}</style></defs><title>NV_vector</title><path class="cls-1" d="M218.57,245a40.35,40.35,0,0,0-40.3,40.3v5a40.3,40.3,0,1,0,80.6,0v-5A40.35,40.35,0,0,0,218.57,245Zm16.3,45.27a16.3,16.3,0,1,1-32.6,0v-5a16.3,16.3,0,0,1,32.6,0Z" transform="translate(-97.67 -214.28)"></path><path class="cls-1" d="M142.35,247.29H128.14a30.51,30.51,0,0,0-30.48,30.48v51.52h24V277.77a6.48,6.48,0,0,1,6.48-6.48H142.2a6.48,6.48,0,0,1,6.48,6.48v51.52h24V277.77A30.51,30.51,0,0,0,142.35,247.29Z" transform="translate(-97.67 -214.28)"></path><path class="cls-1" d="M428.19,247.29H407.38V216h-24v31.28l-36.47,0V216h-24v31.15h-28.2c-.79,0-1.57,0-2.35.1l-.67.05a30.52,30.52,0,0,0-27.45,30.32v51.94h24V277.63a6.48,6.48,0,0,1,5.38-6.38h29.12v27.88a30.66,30.66,0,0,0,.18,3.27l.06.47a30.51,30.51,0,0,0,30.24,26.74h24.86v-24H353.21a6.48,6.48,0,0,1-6.3-5V271.26l36.47,0v58.28h24V271.29h20.82a6.48,6.48,0,0,1,6.48,6.48v51.52h24V277.77A30.51,30.51,0,0,0,428.19,247.29Z" transform="translate(-97.67 -214.28)"></path><path class="cls-1" d="M525.85,247.06l-22.71,49.81-22.71-49.81H454.05L487.77,321l.06.13a16.88,16.88,0,0,0,30.63,0l33.77-74.06Z" transform="translate(-97.67 -214.28)"></path><path class="cls-1" d="M585.19,245a40.35,40.35,0,0,0-40.3,40.3v5a40.3,40.3,0,1,0,80.6,0v-5A40.35,40.35,0,0,0,585.19,245Zm16.3,45.27a16.3,16.3,0,1,1-32.6,0v-5a16.3,16.3,0,1,1,32.6,0Z" transform="translate(-97.67 -214.28)"></path><rect class="cls-1" x="533.59" y="1.73" width="24" height="113.56"></rect><path class="cls-1" d="M720.91,271.26v-24H686.64V216h-24l-.18,83.12a30.65,30.65,0,0,0,.18,3.27l.06.47a30.51,30.51,0,0,0,30.24,26.74h27.69v-24H692.94a6.48,6.48,0,0,1-6.3-5V271.26Z" transform="translate(-97.67 -214.28)"></path><path class="cls-1" d="M730.58,221.8a3.24,3.24,0,0,0-1.18-2.62c-.93-.75-1.88-.75-3.3-.77h-3.39v10.64h2v-3.95h1.78l2.11,3.95h2.28l-2.37-4.33A2.91,2.91,0,0,0,730.58,221.8Zm-3.89,1.63c-.38,0-.63,0-1.31,0h-.69v-3.33h.92a4.89,4.89,0,0,1,2.11.23,1.52,1.52,0,0,1,.84,1.43A1.66,1.66,0,0,1,726.69,223.43Z" transform="translate(-97.67 -214.28)"></path><path class="cls-1" d="M726.37,214.28a9.65,9.65,0,1,0,9.65,9.65A9.67,9.67,0,0,0,726.37,214.28Zm0,17.62a8,8,0,1,1,8-8A8,8,0,0,1,726.37,231.9Z" transform="translate(-97.67 -214.28)"></path></svg>
